<svg width="28" height="28" viewBox="0 0 28 28" fill="none" xmlns="http://www.w3.org/2000/svg">
<path d="M10.2319 3.69531L12.1011 6.875H12.0312H8.16406C6.97705 6.875 6.01562 5.91357 6.01562 4.72656C6.01562 3.53955 6.97705 2.57812 8.16406 2.57812H8.28223C9.08252 2.57812 9.8291 3.00244 10.2319 3.69531ZM3.4375 4.72656C3.4375 5.5 3.62549 6.23047 3.95312 6.875H1.71875C0.768066 6.875 0 7.64307 0 8.59375V12.0312C0 12.9819 0.768066 13.75 1.71875 13.75H25.7812C26.7319 13.75 27.5 12.9819 27.5 12.0312V8.59375C27.5 7.64307 26.7319 6.875 25.7812 6.875H23.5469C23.8745 6.23047 24.0625 5.5 24.0625 4.72656C24.0625 2.11621 21.9463 0 19.3359 0H19.2178C17.5044 0 15.9146 0.907715 15.0444 2.38477L13.75 4.59229L12.4556 2.39014C11.5854 0.907715 9.99561 0 8.28223 0H8.16406C5.55371 0 3.4375 2.11621 3.4375 4.72656ZM21.4844 4.72656C21.4844 5.91357 20.5229 6.875 19.3359 6.875H15.4688H15.3989L17.2681 3.69531C17.6763 3.00244 18.4175 2.57812 19.2178 2.57812H19.3359C20.5229 2.57812 21.4844 3.53955 21.4844 4.72656ZM1.71875 15.4688V24.9219C1.71875 26.3452 2.87354 27.5 4.29688 27.5H12.0312V15.4688H1.71875ZM15.4688 27.5H23.2031C24.6265 27.5 25.7812 26.3452 25.7812 24.9219V15.4688H15.4688V27.5Z" fill="white"/>
</svg>
