<svg width="28" height="28" viewBox="0 0 28 28" fill="none" xmlns="http://www.w3.org/2000/svg">
<path d="M20.3611 13.1328C20.5282 12.8034 20.681 12.474 20.8194 12.1493C20.8433 12.092 20.8672 12.03 20.8911 11.9727L26.4293 9.75741C27.1836 9.45662 28 10.0104 28 10.8221V23.7509C28 24.2188 27.7135 24.6389 27.2791 24.8156L20.3611 27.5799V13.1328ZM7.06944 10.168C7.18403 10.8412 7.41319 11.5191 7.68055 12.1493C7.81901 12.474 7.97179 12.8034 8.13889 13.1328V25.1354L2.07075 27.5656C1.31641 27.8663 0.5 27.3125 0.5 26.5009V13.5721C0.5 13.1042 0.786458 12.6841 1.22092 12.5074L7.07422 10.168H7.06944ZM14.2932 20.2046C15.169 19.5478 17.8546 17.234 18.8333 15.7396V27.642L9.66667 25.0209V15.7396C10.6454 17.234 13.4175 19.5478 14.2932 20.2046Z" fill="white"/>
<path d="M14.2932 17.0749C16.1738 15.2204 17.5631 13.5384 18.4609 12.0288C19.3588 10.5193 19.8078 9.18974 19.8078 8.0403C19.8078 6.23186 19.274 4.75291 18.2064 3.60348C17.1389 2.45404 15.8345 1.87932 14.2932 1.87932C12.752 1.87932 11.4475 2.45404 10.38 3.60348C9.31243 4.75291 8.77865 6.23186 8.77865 8.0403C8.77865 9.18974 9.23819 10.5193 10.1573 12.0288C11.0764 13.5384 12.455 15.2204 14.2932 17.0749ZM14.2932 18.891C12.0167 16.7913 10.3164 14.8411 9.19224 13.0403C8.06812 11.2396 7.50605 9.57288 7.50605 8.0403C7.50605 5.74143 8.1883 3.90999 9.5528 2.546C10.9173 1.182 12.4974 0.5 14.2932 0.5C16.089 0.5 17.6691 1.182 19.0336 2.546C20.3981 3.90999 21.0804 5.74143 21.0804 8.0403C21.0804 9.57288 20.5183 11.2396 19.3942 13.0403C18.27 14.8411 16.5697 16.7913 14.2932 18.891ZM11.9601 10.615H13.2327V7.85639H15.3537V10.615H16.6263V6.36212L14.2932 4.68395L11.9601 6.36212V10.615Z" fill="white"/>
</svg>
