<svg width="55" height="53" viewBox="0 0 55 53" fill="none" xmlns="http://www.w3.org/2000/svg">
<path d="M12.8828 14.9219C12.2812 13.4688 10.6953 12.6953 9.17969 13.1094L2.30469 14.9844C0.945312 15.3594 0 16.5938 0 18C0 37.3281 15.6719 53 35 53C36.4062 53 37.6406 52.0547 38.0156 50.6953L39.8906 43.8203C40.3047 42.3047 39.5312 40.7188 38.0781 40.1172L30.5781 36.9922C29.3047 36.4609 27.8281 36.8281 26.9609 37.8984L23.8047 41.75C18.3047 39.1484 13.8516 34.6953 11.25 29.1953L15.1016 26.0469C16.1719 25.1719 16.5391 23.7031 16.0078 22.4297L12.8828 14.9297V14.9219Z" fill="white"/>
<path d="M32.2479 21.0474C33.0036 20.4968 33.9819 20.3562 34.8606 20.6725C36.4129 21.2349 38.1527 21.557 40.0038 21.557C47.3086 21.557 52.1882 16.8414 52.1882 12.1844C52.1882 7.52739 47.3086 2.81179 40.0038 2.81179C32.699 2.81179 27.8194 7.52739 27.8194 12.1844C27.8194 14.0589 28.5458 15.8632 29.9107 17.4097C30.4144 17.9779 30.6605 18.7277 30.6019 19.4892C30.5199 20.5495 30.268 21.5219 29.9399 22.383C30.9358 21.9202 31.7617 21.4047 32.2479 21.0533V21.0474ZM26.2495 23.4257C26.3549 23.2675 26.4545 23.1094 26.5482 22.9512C27.134 21.9788 27.6905 20.7018 27.8018 19.2666C26.0444 17.2691 25.0076 14.8263 25.0076 12.1844C25.0076 5.4537 31.7207 0 40.0038 0C48.2869 0 55 5.4537 55 12.1844C55 18.9151 48.2869 24.3688 40.0038 24.3688C37.8305 24.3688 35.7685 23.9939 33.9057 23.3203C33.2086 23.8299 32.0722 24.527 30.7249 25.1128C29.8404 25.4994 28.8328 25.8509 27.7901 26.0559C27.7432 26.0676 27.6964 26.0735 27.6495 26.0852C27.3918 26.1321 27.1399 26.1731 26.8763 26.1965C26.8645 26.1965 26.847 26.2024 26.8353 26.2024C26.5365 26.2316 26.2378 26.2492 25.939 26.2492C25.5582 26.2492 25.2185 26.0208 25.072 25.6693C24.9256 25.3178 25.0076 24.9195 25.2712 24.65C25.5114 24.404 25.7281 24.1404 25.9331 23.8592C26.0327 23.7245 26.1265 23.5897 26.2143 23.455C26.2202 23.4433 26.226 23.4374 26.2319 23.4257H26.2495Z" fill="white"/>
</svg>
