<svg width="28" height="25" viewBox="0 0 28 25" fill="none" xmlns="http://www.w3.org/2000/svg">
<path d="M11.0107 23.912C11.6284 23.6381 12.0312 23.0204 12.0312 22.3436V18.9061H18.0469C23.2676 18.9061 27.5 14.6737 27.5 9.45302C27.5 3.36757 23.1226 0.649796 22.1182 0.101944C21.9839 0.0267486 21.8335 -0.000106812 21.6831 -0.000106812C21.0977 -0.000106812 20.625 0.47792 20.625 1.058C20.625 1.46083 20.856 1.83144 21.1514 2.10536C21.6563 2.58339 22.3438 3.52333 22.3438 5.15614C22.3438 8.00282 20.0342 10.3124 17.1875 10.3124H12.0313V6.87489C12.0313 6.19814 11.6338 5.58046 11.0107 5.30653C10.3877 5.03261 9.66797 5.1454 9.16309 5.59657L0.569336 13.3309C0.209473 13.6586 0 14.1205 0 14.6093C0 15.098 0.204102 15.56 0.569336 15.8876L9.16309 23.622C9.66797 24.0785 10.3931 24.1913 11.0107 23.912Z" fill="white"/>
</svg>
