<svg width="15" height="15" viewBox="0 0 15 15" fill="none" xmlns="http://www.w3.org/2000/svg">
<g clip-path="url(#clip0_27_114)">
<path d="M12.1875 11.6865C13.9014 10.4824 15 8.63672 15 6.5625C15 2.93848 11.6426 0 7.5 0C3.35742 0 0 2.93848 0 6.5625C0 8.63379 1.09863 10.4824 2.8125 11.6865C2.8125 11.6982 2.8125 11.707 2.8125 11.7188V13.5938C2.8125 14.3701 3.44238 15 4.21875 15H5.625V13.5938C5.625 13.3359 5.83594 13.125 6.09375 13.125C6.35156 13.125 6.5625 13.3359 6.5625 13.5938V15H8.4375V13.5938C8.4375 13.3359 8.64844 13.125 8.90625 13.125C9.16406 13.125 9.375 13.3359 9.375 13.5938V15H10.7812C11.5576 15 12.1875 14.3701 12.1875 13.5938V11.7188C12.1875 11.707 12.1875 11.6982 12.1875 11.6865ZM2.8125 7.5C2.8125 7.00272 3.01004 6.52581 3.36167 6.17417C3.71331 5.82254 4.19022 5.625 4.6875 5.625C5.18478 5.625 5.66169 5.82254 6.01333 6.17417C6.36496 6.52581 6.5625 7.00272 6.5625 7.5C6.5625 7.99728 6.36496 8.47419 6.01333 8.82582C5.66169 9.17746 5.18478 9.375 4.6875 9.375C4.19022 9.375 3.71331 9.17746 3.36167 8.82582C3.01004 8.47419 2.8125 7.99728 2.8125 7.5ZM10.3125 5.625C10.8098 5.625 11.2867 5.82254 11.6383 6.17417C11.99 6.52581 12.1875 7.00272 12.1875 7.5C12.1875 7.99728 11.99 8.47419 11.6383 8.82582C11.2867 9.17746 10.8098 9.375 10.3125 9.375C9.81522 9.375 9.33831 9.17746 8.98668 8.82582C8.63504 8.47419 8.4375 7.99728 8.4375 7.5C8.4375 7.00272 8.63504 6.52581 8.98668 6.17417C9.33831 5.82254 9.81522 5.625 10.3125 5.625Z" fill="white"/>
</g>
<defs>
<clipPath id="clip0_27_114">
<rect width="15" height="15" fill="white"/>
</clipPath>
</defs>
</svg>
