<svg width="28" height="23" viewBox="0 0 28 23" fill="none" xmlns="http://www.w3.org/2000/svg">
<path d="M4.67779 5.57039C4.67779 4.09303 5.26467 2.67618 6.30932 1.63153C7.35397 0.586879 8.77082 0 10.2482 0C11.7255 0 13.1424 0.586879 14.187 1.63153C15.2317 2.67618 15.8186 4.09303 15.8186 5.57039C15.8186 7.04775 15.2317 8.4646 14.187 9.50925C13.1424 10.5539 11.7255 11.1408 10.2482 11.1408C8.77082 11.1408 7.35397 10.5539 6.30932 9.50925C5.26467 8.4646 4.67779 7.04775 4.67779 5.57039ZM0.5 20.9891C0.5 16.7025 3.97279 13.2297 8.25938 13.2297H12.237C16.5236 13.2297 19.9964 16.7025 19.9964 20.9891C19.9964 21.7028 19.4176 22.2816 18.7039 22.2816H1.7925C1.0788 22.2816 0.5 21.7028 0.5 20.9891ZM27.6992 7.70281L22.1288 13.2732C21.7197 13.6823 21.0582 13.6823 20.6535 13.2732L17.8683 10.488C17.4592 10.0789 17.4592 9.41744 17.8683 9.01272C18.2774 8.60799 18.9389 8.60364 19.3436 9.01272L21.389 11.0581L26.2195 6.22317C26.6286 5.8141 27.2901 5.8141 27.6948 6.22317C28.0995 6.63225 28.1039 7.29373 27.6948 7.69845L27.6992 7.70281Z" fill="white"/>
</svg>
